# xmcd
#
# Track frame offsets:
#	150
#	12178
#	21875
#	30795
#	44825
#	59778
#	73540
#	87938
#	98258
#	112223
#	124731
#	138411
#	150295
#	163189
#	177159
#	191575
#	206319
#	219850
#	234183
#	246353
#	262091
#	276133
#	287241
#
# Disc length: 3990 seconds
#
# Revision: 1
# Processed by: cddbd v1.5.2PL0 Copyright (c) Steve Scherf et al.
# Submitted via: audiograbber 1.83.01
#
DISCID=430f9417
DTITLE=—борник - Million Sellers Of The 1950's CD1
DYEAR=1900
DGENRE=
TTITLE0=Nat King Cole - Mona Lisa
TTITLE1=Frankie Laine - I Believe
TTITLE2=Rosemary Clooney - Come On-A My House
TTITLE3=Dean Martin - That's Amore
TTITLE4=Peggy Lee - Lover
TTITLE5=Johnnie Ray - Cry
TTITLE6=Jo Stafford - You Belong To Me
TTITLE7=Phil Harris - The Thing
TTITLE8=Kay Starr - Wheel Of Fortune
TTITLE9=Red Foley - Chatanoogie Shoe Shine Boy
TTITLE10=Patti Page - Tennessee Waltz
TTITLE11=The Ames Brothers - Rag Mop
TTITLE12=Jo Stafford - Shrimp Boats
TTITLE13=Perry Como - If
TTITLE14=Al Martino - Here In My Heart
TTITLE15=Teresa Brewer - Music, Music, Music
TTITLE16=Tony Bennett - Because Of You
TTITLE17=The Four Aces - Tell Me Why
TTITLE18=Doris Day - A Guy Is A Guy
TTITLE19=Mario Lanza - Be My Love
TTITLE20=Eddie Fisher - I'm Walking Behind You
TTITLE21=Georgia Gibbs - Kiss Of Fire
TTITLE22=Frankie Laine - High Noon
EXTD=
EXTT0=
EXTT1=
EXTT2=
EXTT3=
EXTT4=
EXTT5=
EXTT6=
EXTT7=
EXTT8=
EXTT9=
EXTT10=
EXTT11=
EXTT12=
EXTT13=
EXTT14=
EXTT15=
EXTT16=
EXTT17=
EXTT18=
EXTT19=
EXTT20=
EXTT21=
EXTT22=
PLAYORDER=
